# xmcd
#
# Track frame offsets:
# 150
# 24952
# 45688
# 67751
# 91030
# 112906
# 136031
# 157911
# 180501
# 202895
# 226234
# 248888
# 271464
#
# Disc length: 3949 seconds
#
#
# Revision: 1
# Processed by: cddbd v1.5.2PL0 Copyright (c) Steve Scherf et al.
# Submitted via: FreeRIP 2.96 
#
DISCID=920f6b0d
DTITLE=J. K. Rowling - Harry Potter und die Heiligtümer des Todes
DYEAR=2008
DGENRE=Hörbuch
TTITLE0=061 - Die Hochzeit
TTITLE1=062 - Die Hochzeit
TTITLE2=063 - Die Hochzeit
TTITLE3=064 - Die Hochzeit
TTITLE4=065 - Die Hochzeit
TTITLE5=066 - Die Hochzeit
TTITLE6=067 - Die Hochzeit
TTITLE7=068 - Ein Versteck
TTITLE8=069 - Ein Versteck
TTITLE9=070 - Ein Versteck
TTITLE10=071 - Ein Versteck
TTITLE11=072 - Ein Versteck
TTITLE12=073 - Ein Versteck
EXTD=gelesen von Rufus Beck
EXTT0=
EXTT1=
EXTT2=
EXTT3=
EXTT4=
EXTT5=
EXTT6=
EXTT7=
EXTT8=
EXTT9=
EXTT10=
EXTT11=
EXTT12=
PLAYORDER=
